<mxfile host="Electron" modified="2023-05-27T14:31:32.014Z" agent="Mozilla/5.0 (Macintosh; Intel Mac OS X 10_15_7) AppleWebKit/537.36 (KHTML, like Gecko) draw.io/21.2.1 Chrome/112.0.5615.87 Electron/24.1.2 Safari/537.36" etag="O3g4pE0Rdcu7hQ8Lm24b" version="21.2.1" type="device">
  <diagram name="Page-1" id="H1nZVYqxkzLZFgEqRADx">
    <mxGraphModel dx="1790" dy="7550" grid="1" gridSize="10" guides="1" tooltips="1" connect="1" arrows="1" fold="1" page="1" pageScale="1" pageWidth="850" pageHeight="1100" math="0" shadow="0">
      <root>
        <mxCell id="0" />
        <mxCell id="1" parent="0" />
        <mxCell id="AsBp8XiL8Dx4Y6rQVwFH-1774" value="R, W: 106, H: 105, ORDER: 12, GC: {45, 30, 31, 15, 11, 4, 3, 28, 7, 18, 60, 46} " style="text;html=1;strokeColor=none;fillColor=none;align=center;verticalAlign=middle;whiteSpace=wrap;rounded=0;" parent="1" vertex="1">
          <mxGeometry x="1160" width="1060" height="30" as="geometry" />
        </mxCell>
        <mxCell id="AsBp8XiL8Dx4Y6rQVwFH-1826" value="R, W: 106, H: 99, ORDER: 12, GC: {41, 24, 18, 23, 13, 5, 17, 7, 28, 20, 58, 48}" style="text;html=1;strokeColor=none;fillColor=none;align=center;verticalAlign=middle;whiteSpace=wrap;rounded=0;" parent="1" vertex="1">
          <mxGeometry x="1160" y="1440" width="1060" height="30" as="geometry" />
        </mxCell>
        <mxCell id="AsBp8XiL8Dx4Y6rQVwFH-2195" value="R, W: 106, H: 99, ORDER: 13, GC: {44, 33, 29, 10, 19, 11, 15, 7, 1, 9, 8, 55, 51} " style="text;html=1;strokeColor=none;fillColor=none;align=center;verticalAlign=middle;whiteSpace=wrap;rounded=0;" parent="1" vertex="1">
          <mxGeometry x="1155" y="2550" width="1060" height="30" as="geometry" />
        </mxCell>
        <mxCell id="AsBp8XiL8Dx4Y6rQVwFH-3055" value="R, W: 106, H: 75, ORDER: 14, GC: {33, 24, 22, 27, 17, 5, 9, 15, 12, 20, 42, 36, 8, 28} " style="text;html=1;strokeColor=none;fillColor=none;align=center;verticalAlign=middle;whiteSpace=wrap;rounded=0;" parent="1" vertex="1">
          <mxGeometry x="1145" y="3800" width="1060" height="30" as="geometry" />
        </mxCell>
        <mxCell id="AsBp8XiL8Dx4Y6rQVwFH-3115" value="R, W: 106, H: 71, ORDER: 14, GC: {34, 31, 18, 23, 13, 5, 9, 19, 3, 40, 1, 10, 29, 37} " style="text;html=1;strokeColor=none;fillColor=none;align=center;verticalAlign=middle;whiteSpace=wrap;rounded=0;flipV=1;" parent="1" vertex="1">
          <mxGeometry x="1140" y="4680" width="1060" height="30" as="geometry" />
        </mxCell>
        <mxCell id="AsBp8XiL8Dx4Y6rQVwFH-3521" value="R, W: 106, H: 105, ORDER: 15, GC: {46, 21, 16, 23, 5, 4, 7, 1, 3, 25, 2, 35, 59, 12, 47} " style="text;html=1;strokeColor=none;fillColor=none;align=center;verticalAlign=middle;whiteSpace=wrap;rounded=0;" parent="1" vertex="1">
          <mxGeometry x="1165" y="-1120" width="1060" height="30" as="geometry" />
        </mxCell>
        <mxCell id="AsBp8XiL8Dx4Y6rQVwFH-7249" value="R, W: 106, H: 82, ORDER: 18, GC: {25, 12, 9, 10, 3, 5, 1, 13, 2, 17, 4, 7, 11, 33, 8, 16, 57, 49} " style="text;html=1;strokeColor=none;fillColor=none;align=center;verticalAlign=middle;whiteSpace=wrap;rounded=0;flipV=1;" parent="1" vertex="1">
          <mxGeometry x="1145" y="5610" width="1060" height="30" as="geometry" />
        </mxCell>
        <mxCell id="gLKEpnA5lNDWp1gUO8rU-459" value="73" style="rounded=0;whiteSpace=wrap;html=1;aspect=fixed;" vertex="1" parent="1">
          <mxGeometry x="2500" y="5190" width="730" height="730" as="geometry" />
        </mxCell>
        <mxCell id="gLKEpnA5lNDWp1gUO8rU-460" value="12" style="rounded=0;whiteSpace=wrap;html=1;aspect=fixed;" vertex="1" parent="1">
          <mxGeometry x="3230" y="5670" width="120" height="120" as="geometry" />
        </mxCell>
        <mxCell id="gLKEpnA5lNDWp1gUO8rU-461" value="9" style="rounded=0;whiteSpace=wrap;html=1;aspect=fixed;" vertex="1" parent="1">
          <mxGeometry x="3350" y="5670" width="90" height="90" as="geometry" />
        </mxCell>
        <mxCell id="gLKEpnA5lNDWp1gUO8rU-462" value="10" style="rounded=0;whiteSpace=wrap;html=1;aspect=fixed;" vertex="1" parent="1">
          <mxGeometry x="3440" y="5670" width="100" height="100" as="geometry" />
        </mxCell>
        <mxCell id="gLKEpnA5lNDWp1gUO8rU-463" value="3" style="rounded=0;whiteSpace=wrap;html=1;aspect=fixed;" vertex="1" parent="1">
          <mxGeometry x="3350" y="5760" width="30" height="30" as="geometry" />
        </mxCell>
        <mxCell id="gLKEpnA5lNDWp1gUO8rU-464" value="5" style="rounded=0;whiteSpace=wrap;html=1;aspect=fixed;" vertex="1" parent="1">
          <mxGeometry x="3380" y="5760" width="50" height="50" as="geometry" />
        </mxCell>
        <mxCell id="gLKEpnA5lNDWp1gUO8rU-465" value="1" style="rounded=0;whiteSpace=wrap;html=1;aspect=fixed;" vertex="1" parent="1">
          <mxGeometry x="3430" y="5760" width="10" height="10" as="geometry" />
        </mxCell>
        <mxCell id="gLKEpnA5lNDWp1gUO8rU-466" value="13" style="rounded=0;whiteSpace=wrap;html=1;aspect=fixed;" vertex="1" parent="1">
          <mxGeometry x="3230" y="5790" width="130" height="130" as="geometry" />
        </mxCell>
        <mxCell id="gLKEpnA5lNDWp1gUO8rU-467" value="2" style="rounded=0;whiteSpace=wrap;html=1;aspect=fixed;" vertex="1" parent="1">
          <mxGeometry x="3360" y="5790" width="20" height="20" as="geometry" />
        </mxCell>
        <mxCell id="gLKEpnA5lNDWp1gUO8rU-468" value="17" style="rounded=0;whiteSpace=wrap;html=1;aspect=fixed;" vertex="1" parent="1">
          <mxGeometry x="3540" y="5670" width="170" height="170" as="geometry" />
        </mxCell>
        <mxCell id="gLKEpnA5lNDWp1gUO8rU-469" value="4" style="rounded=0;whiteSpace=wrap;html=1;aspect=fixed;" vertex="1" parent="1">
          <mxGeometry x="3430" y="5770" width="40" height="40" as="geometry" />
        </mxCell>
        <mxCell id="gLKEpnA5lNDWp1gUO8rU-470" value="7" style="rounded=0;whiteSpace=wrap;html=1;aspect=fixed;" vertex="1" parent="1">
          <mxGeometry x="3470" y="5770" width="70" height="70" as="geometry" />
        </mxCell>
        <mxCell id="gLKEpnA5lNDWp1gUO8rU-471" value="11" style="rounded=0;whiteSpace=wrap;html=1;aspect=fixed;" vertex="1" parent="1">
          <mxGeometry x="3360" y="5810" width="110" height="110" as="geometry" />
        </mxCell>
        <mxCell id="gLKEpnA5lNDWp1gUO8rU-472" value="81" style="rounded=0;whiteSpace=wrap;html=1;aspect=fixed;" vertex="1" parent="1">
          <mxGeometry x="3710" y="5190" width="810" height="810" as="geometry" />
        </mxCell>
        <mxCell id="gLKEpnA5lNDWp1gUO8rU-473" value="8" style="rounded=0;whiteSpace=wrap;html=1;aspect=fixed;" vertex="1" parent="1">
          <mxGeometry x="3470" y="5840" width="80" height="80" as="geometry" />
        </mxCell>
        <mxCell id="gLKEpnA5lNDWp1gUO8rU-474" value="16" style="rounded=0;whiteSpace=wrap;html=1;aspect=fixed;" vertex="1" parent="1">
          <mxGeometry x="3550" y="5840" width="160" height="160" as="geometry" />
        </mxCell>
        <mxCell id="gLKEpnA5lNDWp1gUO8rU-475" value="105" style="rounded=0;whiteSpace=wrap;html=1;aspect=fixed;" vertex="1" parent="1">
          <mxGeometry x="2500" y="5920" width="1050" height="1050" as="geometry" />
        </mxCell>
        <mxCell id="gLKEpnA5lNDWp1gUO8rU-476" value="97" style="rounded=0;whiteSpace=wrap;html=1;aspect=fixed;" vertex="1" parent="1">
          <mxGeometry x="3550" y="6000" width="970" height="970" as="geometry" />
        </mxCell>
        <mxCell id="gLKEpnA5lNDWp1gUO8rU-479" value="48" style="rounded=0;whiteSpace=wrap;html=1;aspect=fixed;" vertex="1" parent="1">
          <mxGeometry x="3230" y="5190" width="480" height="480" as="geometry" />
        </mxCell>
        <mxCell id="gLKEpnA5lNDWp1gUO8rU-480" value="" style="shape=flexArrow;endArrow=classic;html=1;rounded=0;endWidth=16;endSize=5;" edge="1" parent="1">
          <mxGeometry width="50" height="50" relative="1" as="geometry">
            <mxPoint x="2280" y="6190" as="sourcePoint" />
            <mxPoint x="2440" y="6190" as="targetPoint" />
          </mxGeometry>
        </mxCell>
        <mxCell id="gLKEpnA5lNDWp1gUO8rU-481" value="" style="group;flipV=1;" vertex="1" connectable="0" parent="1">
          <mxGeometry x="1165" y="-1070" width="1060" height="1050" as="geometry" />
        </mxCell>
        <mxCell id="761dnnyQ54j-Cl0NHfQN-3522" value="46" style="rounded=0;whiteSpace=wrap;html=1;" parent="gLKEpnA5lNDWp1gUO8rU-481" vertex="1">
          <mxGeometry y="590" width="460" height="460" as="geometry" />
        </mxCell>
        <mxCell id="761dnnyQ54j-Cl0NHfQN-3523" value="21" style="rounded=0;whiteSpace=wrap;html=1;" parent="gLKEpnA5lNDWp1gUO8rU-481" vertex="1">
          <mxGeometry x="460" y="840" width="210" height="210" as="geometry" />
        </mxCell>
        <mxCell id="761dnnyQ54j-Cl0NHfQN-3524" value="16" style="rounded=0;whiteSpace=wrap;html=1;" parent="gLKEpnA5lNDWp1gUO8rU-481" vertex="1">
          <mxGeometry x="670" y="890" width="160" height="160" as="geometry" />
        </mxCell>
        <mxCell id="761dnnyQ54j-Cl0NHfQN-3525" value="23" style="rounded=0;whiteSpace=wrap;html=1;" parent="gLKEpnA5lNDWp1gUO8rU-481" vertex="1">
          <mxGeometry x="830" y="820" width="230" height="230" as="geometry" />
        </mxCell>
        <mxCell id="761dnnyQ54j-Cl0NHfQN-3526" value="5" style="rounded=0;whiteSpace=wrap;html=1;" parent="gLKEpnA5lNDWp1gUO8rU-481" vertex="1">
          <mxGeometry x="670" y="840" width="50" height="50" as="geometry" />
        </mxCell>
        <mxCell id="761dnnyQ54j-Cl0NHfQN-3527" value="4" style="rounded=0;whiteSpace=wrap;html=1;" parent="gLKEpnA5lNDWp1gUO8rU-481" vertex="1">
          <mxGeometry x="720" y="850" width="40" height="40" as="geometry" />
        </mxCell>
        <mxCell id="761dnnyQ54j-Cl0NHfQN-3528" value="7" style="rounded=0;whiteSpace=wrap;html=1;" parent="gLKEpnA5lNDWp1gUO8rU-481" vertex="1">
          <mxGeometry x="760" y="820" width="70" height="70" as="geometry" />
        </mxCell>
        <mxCell id="761dnnyQ54j-Cl0NHfQN-3529" value="1" style="rounded=0;whiteSpace=wrap;html=1;" parent="gLKEpnA5lNDWp1gUO8rU-481" vertex="1">
          <mxGeometry x="720" y="840" width="10" height="10" as="geometry" />
        </mxCell>
        <mxCell id="761dnnyQ54j-Cl0NHfQN-3530" value="3" style="rounded=0;whiteSpace=wrap;html=1;" parent="gLKEpnA5lNDWp1gUO8rU-481" vertex="1">
          <mxGeometry x="730" y="820" width="30" height="30" as="geometry" />
        </mxCell>
        <mxCell id="761dnnyQ54j-Cl0NHfQN-3531" value="25" style="rounded=0;whiteSpace=wrap;html=1;" parent="gLKEpnA5lNDWp1gUO8rU-481" vertex="1">
          <mxGeometry x="460" y="590" width="250" height="250" as="geometry" />
        </mxCell>
        <mxCell id="761dnnyQ54j-Cl0NHfQN-3532" value="2" style="rounded=0;whiteSpace=wrap;html=1;" parent="gLKEpnA5lNDWp1gUO8rU-481" vertex="1">
          <mxGeometry x="710" y="820" width="20" height="20" as="geometry" />
        </mxCell>
        <mxCell id="761dnnyQ54j-Cl0NHfQN-3533" value="35" style="rounded=0;whiteSpace=wrap;html=1;" parent="gLKEpnA5lNDWp1gUO8rU-481" vertex="1">
          <mxGeometry x="710" y="470" width="350" height="350" as="geometry" />
        </mxCell>
        <mxCell id="761dnnyQ54j-Cl0NHfQN-3534" value="59" style="rounded=0;whiteSpace=wrap;html=1;" parent="gLKEpnA5lNDWp1gUO8rU-481" vertex="1">
          <mxGeometry width="590" height="590" as="geometry" />
        </mxCell>
        <mxCell id="761dnnyQ54j-Cl0NHfQN-3535" value="12" style="rounded=0;whiteSpace=wrap;html=1;" parent="gLKEpnA5lNDWp1gUO8rU-481" vertex="1">
          <mxGeometry x="590" y="470" width="120" height="120" as="geometry" />
        </mxCell>
        <mxCell id="761dnnyQ54j-Cl0NHfQN-3536" value="47" style="rounded=0;whiteSpace=wrap;html=1;" parent="gLKEpnA5lNDWp1gUO8rU-481" vertex="1">
          <mxGeometry x="590" width="470" height="470" as="geometry" />
        </mxCell>
        <mxCell id="gLKEpnA5lNDWp1gUO8rU-482" value="" style="group;flipV=1;" vertex="1" connectable="0" parent="1">
          <mxGeometry x="1160" y="50" width="1060" height="1050" as="geometry" />
        </mxCell>
        <mxCell id="761dnnyQ54j-Cl0NHfQN-1775" value="45" style="rounded=0;whiteSpace=wrap;html=1;" parent="gLKEpnA5lNDWp1gUO8rU-482" vertex="1">
          <mxGeometry y="600" width="450" height="450" as="geometry" />
        </mxCell>
        <mxCell id="761dnnyQ54j-Cl0NHfQN-1776" value="30" style="rounded=0;whiteSpace=wrap;html=1;" parent="gLKEpnA5lNDWp1gUO8rU-482" vertex="1">
          <mxGeometry x="450" y="750" width="300" height="300" as="geometry" />
        </mxCell>
        <mxCell id="761dnnyQ54j-Cl0NHfQN-1777" value="31" style="rounded=0;whiteSpace=wrap;html=1;" parent="gLKEpnA5lNDWp1gUO8rU-482" vertex="1">
          <mxGeometry x="750" y="740" width="310" height="310" as="geometry" />
        </mxCell>
        <mxCell id="761dnnyQ54j-Cl0NHfQN-1778" value="15" style="rounded=0;whiteSpace=wrap;html=1;" parent="gLKEpnA5lNDWp1gUO8rU-482" vertex="1">
          <mxGeometry x="450" y="600" width="150" height="150" as="geometry" />
        </mxCell>
        <mxCell id="761dnnyQ54j-Cl0NHfQN-1779" value="11" style="rounded=0;whiteSpace=wrap;html=1;" parent="gLKEpnA5lNDWp1gUO8rU-482" vertex="1">
          <mxGeometry x="600" y="640" width="110" height="110" as="geometry" />
        </mxCell>
        <mxCell id="761dnnyQ54j-Cl0NHfQN-1780" value="4" style="rounded=0;whiteSpace=wrap;html=1;" parent="gLKEpnA5lNDWp1gUO8rU-482" vertex="1">
          <mxGeometry x="710" y="710" width="40" height="40" as="geometry" />
        </mxCell>
        <mxCell id="761dnnyQ54j-Cl0NHfQN-1781" value="3" style="rounded=0;whiteSpace=wrap;html=1;" parent="gLKEpnA5lNDWp1gUO8rU-482" vertex="1">
          <mxGeometry x="750" y="710" width="30" height="30" as="geometry" />
        </mxCell>
        <mxCell id="761dnnyQ54j-Cl0NHfQN-1782" value="28" style="rounded=0;whiteSpace=wrap;html=1;" parent="gLKEpnA5lNDWp1gUO8rU-482" vertex="1">
          <mxGeometry x="780" y="460" width="280" height="280" as="geometry" />
        </mxCell>
        <mxCell id="761dnnyQ54j-Cl0NHfQN-1783" value="7" style="rounded=0;whiteSpace=wrap;html=1;" parent="gLKEpnA5lNDWp1gUO8rU-482" vertex="1">
          <mxGeometry x="710" y="640" width="70" height="70" as="geometry" />
        </mxCell>
        <mxCell id="761dnnyQ54j-Cl0NHfQN-1784" value="18" style="rounded=0;whiteSpace=wrap;html=1;" parent="gLKEpnA5lNDWp1gUO8rU-482" vertex="1">
          <mxGeometry x="600" y="460" width="180" height="180" as="geometry" />
        </mxCell>
        <mxCell id="761dnnyQ54j-Cl0NHfQN-1785" value="60" style="rounded=0;whiteSpace=wrap;html=1;" parent="gLKEpnA5lNDWp1gUO8rU-482" vertex="1">
          <mxGeometry width="600" height="600" as="geometry" />
        </mxCell>
        <mxCell id="761dnnyQ54j-Cl0NHfQN-1786" value="46" style="rounded=0;whiteSpace=wrap;html=1;" parent="gLKEpnA5lNDWp1gUO8rU-482" vertex="1">
          <mxGeometry x="600" width="460" height="460" as="geometry" />
        </mxCell>
        <mxCell id="gLKEpnA5lNDWp1gUO8rU-497" value="" style="group;flipV=1;" vertex="1" connectable="0" parent="1">
          <mxGeometry x="1160" y="1490" width="1060" height="990" as="geometry" />
        </mxCell>
        <mxCell id="761dnnyQ54j-Cl0NHfQN-1827" value="41" style="rounded=0;whiteSpace=wrap;html=1;" parent="gLKEpnA5lNDWp1gUO8rU-497" vertex="1">
          <mxGeometry y="580" width="410" height="410" as="geometry" />
        </mxCell>
        <mxCell id="761dnnyQ54j-Cl0NHfQN-1828" value="24" style="rounded=0;whiteSpace=wrap;html=1;" parent="gLKEpnA5lNDWp1gUO8rU-497" vertex="1">
          <mxGeometry x="410" y="750" width="240" height="240" as="geometry" />
        </mxCell>
        <mxCell id="761dnnyQ54j-Cl0NHfQN-1829" value="18" style="rounded=0;whiteSpace=wrap;html=1;" parent="gLKEpnA5lNDWp1gUO8rU-497" vertex="1">
          <mxGeometry x="650" y="810" width="180" height="180" as="geometry" />
        </mxCell>
        <mxCell id="761dnnyQ54j-Cl0NHfQN-1830" value="23" style="rounded=0;whiteSpace=wrap;html=1;" parent="gLKEpnA5lNDWp1gUO8rU-497" vertex="1">
          <mxGeometry x="830" y="760" width="230" height="230" as="geometry" />
        </mxCell>
        <mxCell id="761dnnyQ54j-Cl0NHfQN-1831" value="13" style="rounded=0;whiteSpace=wrap;html=1;" parent="gLKEpnA5lNDWp1gUO8rU-497" vertex="1">
          <mxGeometry x="650" y="680" width="130" height="130" as="geometry" />
        </mxCell>
        <mxCell id="761dnnyQ54j-Cl0NHfQN-1832" value="5" style="rounded=0;whiteSpace=wrap;html=1;" parent="gLKEpnA5lNDWp1gUO8rU-497" vertex="1">
          <mxGeometry x="780" y="760" width="50" height="50" as="geometry" />
        </mxCell>
        <mxCell id="761dnnyQ54j-Cl0NHfQN-1833" value="17" style="rounded=0;whiteSpace=wrap;html=1;" parent="gLKEpnA5lNDWp1gUO8rU-497" vertex="1">
          <mxGeometry x="410" y="580" width="170" height="170" as="geometry" />
        </mxCell>
        <mxCell id="761dnnyQ54j-Cl0NHfQN-1834" value="7" style="rounded=0;whiteSpace=wrap;html=1;" parent="gLKEpnA5lNDWp1gUO8rU-497" vertex="1">
          <mxGeometry x="580" y="680" width="70" height="70" as="geometry" />
        </mxCell>
        <mxCell id="761dnnyQ54j-Cl0NHfQN-1835" value="28" style="rounded=0;whiteSpace=wrap;html=1;" parent="gLKEpnA5lNDWp1gUO8rU-497" vertex="1">
          <mxGeometry x="780" y="480" width="280" height="280" as="geometry" />
        </mxCell>
        <mxCell id="761dnnyQ54j-Cl0NHfQN-1836" value="20" style="rounded=0;whiteSpace=wrap;html=1;" parent="gLKEpnA5lNDWp1gUO8rU-497" vertex="1">
          <mxGeometry x="580" y="480" width="200" height="200" as="geometry" />
        </mxCell>
        <mxCell id="761dnnyQ54j-Cl0NHfQN-1837" value="58" style="rounded=0;whiteSpace=wrap;html=1;" parent="gLKEpnA5lNDWp1gUO8rU-497" vertex="1">
          <mxGeometry width="580" height="580" as="geometry" />
        </mxCell>
        <mxCell id="761dnnyQ54j-Cl0NHfQN-1838" value="48" style="rounded=0;whiteSpace=wrap;html=1;" parent="gLKEpnA5lNDWp1gUO8rU-497" vertex="1">
          <mxGeometry x="580" width="480" height="480" as="geometry" />
        </mxCell>
        <mxCell id="gLKEpnA5lNDWp1gUO8rU-498" value="" style="group;flipV=1;" vertex="1" connectable="0" parent="1">
          <mxGeometry x="1155" y="2600" width="1060" height="990" as="geometry" />
        </mxCell>
        <mxCell id="761dnnyQ54j-Cl0NHfQN-2196" value="44" style="rounded=0;whiteSpace=wrap;html=1;" parent="gLKEpnA5lNDWp1gUO8rU-498" vertex="1">
          <mxGeometry y="550" width="440" height="440" as="geometry" />
        </mxCell>
        <mxCell id="761dnnyQ54j-Cl0NHfQN-2197" value="33" style="rounded=0;whiteSpace=wrap;html=1;" parent="gLKEpnA5lNDWp1gUO8rU-498" vertex="1">
          <mxGeometry x="440" y="660" width="330" height="330" as="geometry" />
        </mxCell>
        <mxCell id="761dnnyQ54j-Cl0NHfQN-2198" value="29" style="rounded=0;whiteSpace=wrap;html=1;" parent="gLKEpnA5lNDWp1gUO8rU-498" vertex="1">
          <mxGeometry x="770" y="700" width="290" height="290" as="geometry" />
        </mxCell>
        <mxCell id="761dnnyQ54j-Cl0NHfQN-2199" value="10" style="rounded=0;whiteSpace=wrap;html=1;" parent="gLKEpnA5lNDWp1gUO8rU-498" vertex="1">
          <mxGeometry x="770" y="600" width="100" height="100" as="geometry" />
        </mxCell>
        <mxCell id="761dnnyQ54j-Cl0NHfQN-2200" value="19" style="rounded=0;whiteSpace=wrap;html=1;" parent="gLKEpnA5lNDWp1gUO8rU-498" vertex="1">
          <mxGeometry x="870" y="510" width="190" height="190" as="geometry" />
        </mxCell>
        <mxCell id="761dnnyQ54j-Cl0NHfQN-2201" value="11" style="rounded=0;whiteSpace=wrap;html=1;" parent="gLKEpnA5lNDWp1gUO8rU-498" vertex="1">
          <mxGeometry x="440" y="550" width="110" height="110" as="geometry" />
        </mxCell>
        <mxCell id="761dnnyQ54j-Cl0NHfQN-2202" value="15" style="rounded=0;whiteSpace=wrap;html=1;" parent="gLKEpnA5lNDWp1gUO8rU-498" vertex="1">
          <mxGeometry x="550" y="510" width="150" height="150" as="geometry" />
        </mxCell>
        <mxCell id="761dnnyQ54j-Cl0NHfQN-2203" value="7" style="rounded=0;whiteSpace=wrap;html=1;" parent="gLKEpnA5lNDWp1gUO8rU-498" vertex="1">
          <mxGeometry x="700" y="590" width="70" height="70" as="geometry" />
        </mxCell>
        <mxCell id="761dnnyQ54j-Cl0NHfQN-2204" value="1" style="rounded=0;whiteSpace=wrap;html=1;" parent="gLKEpnA5lNDWp1gUO8rU-498" vertex="1">
          <mxGeometry x="770" y="590" width="10" height="10" as="geometry" />
        </mxCell>
        <mxCell id="761dnnyQ54j-Cl0NHfQN-2205" value="9" style="rounded=0;whiteSpace=wrap;html=1;" parent="gLKEpnA5lNDWp1gUO8rU-498" vertex="1">
          <mxGeometry x="780" y="510" width="90" height="90" as="geometry" />
        </mxCell>
        <mxCell id="761dnnyQ54j-Cl0NHfQN-2206" value="8" style="rounded=0;whiteSpace=wrap;html=1;" parent="gLKEpnA5lNDWp1gUO8rU-498" vertex="1">
          <mxGeometry x="700" y="510" width="80" height="80" as="geometry" />
        </mxCell>
        <mxCell id="761dnnyQ54j-Cl0NHfQN-2207" value="55" style="rounded=0;whiteSpace=wrap;html=1;" parent="gLKEpnA5lNDWp1gUO8rU-498" vertex="1">
          <mxGeometry width="550" height="550" as="geometry" />
        </mxCell>
        <mxCell id="761dnnyQ54j-Cl0NHfQN-2208" value="51" style="rounded=0;whiteSpace=wrap;html=1;" parent="gLKEpnA5lNDWp1gUO8rU-498" vertex="1">
          <mxGeometry x="550" width="510" height="510" as="geometry" />
        </mxCell>
        <mxCell id="gLKEpnA5lNDWp1gUO8rU-499" value="" style="group;flipV=1;" vertex="1" connectable="0" parent="1">
          <mxGeometry x="1145" y="3850" width="1060" height="750" as="geometry" />
        </mxCell>
        <mxCell id="761dnnyQ54j-Cl0NHfQN-3056" value="33" style="rounded=0;whiteSpace=wrap;html=1;" parent="gLKEpnA5lNDWp1gUO8rU-499" vertex="1">
          <mxGeometry y="420" width="330" height="330" as="geometry" />
        </mxCell>
        <mxCell id="761dnnyQ54j-Cl0NHfQN-3057" value="24" style="rounded=0;whiteSpace=wrap;html=1;" parent="gLKEpnA5lNDWp1gUO8rU-499" vertex="1">
          <mxGeometry x="330" y="510" width="240" height="240" as="geometry" />
        </mxCell>
        <mxCell id="761dnnyQ54j-Cl0NHfQN-3058" value="22" style="rounded=0;whiteSpace=wrap;html=1;" parent="gLKEpnA5lNDWp1gUO8rU-499" vertex="1">
          <mxGeometry x="570" y="530" width="220" height="220" as="geometry" />
        </mxCell>
        <mxCell id="761dnnyQ54j-Cl0NHfQN-3059" value="27" style="rounded=0;whiteSpace=wrap;html=1;" parent="gLKEpnA5lNDWp1gUO8rU-499" vertex="1">
          <mxGeometry x="790" y="480" width="270" height="270" as="geometry" />
        </mxCell>
        <mxCell id="761dnnyQ54j-Cl0NHfQN-3060" value="17" style="rounded=0;whiteSpace=wrap;html=1;" parent="gLKEpnA5lNDWp1gUO8rU-499" vertex="1">
          <mxGeometry x="570" y="360" width="170" height="170" as="geometry" />
        </mxCell>
        <mxCell id="761dnnyQ54j-Cl0NHfQN-3061" value="5" style="rounded=0;whiteSpace=wrap;html=1;" parent="gLKEpnA5lNDWp1gUO8rU-499" vertex="1">
          <mxGeometry x="740" y="480" width="50" height="50" as="geometry" />
        </mxCell>
        <mxCell id="761dnnyQ54j-Cl0NHfQN-3062" value="9" style="rounded=0;whiteSpace=wrap;html=1;" parent="gLKEpnA5lNDWp1gUO8rU-499" vertex="1">
          <mxGeometry x="330" y="420" width="90" height="90" as="geometry" />
        </mxCell>
        <mxCell id="761dnnyQ54j-Cl0NHfQN-3063" value="15" style="rounded=0;whiteSpace=wrap;html=1;" parent="gLKEpnA5lNDWp1gUO8rU-499" vertex="1">
          <mxGeometry x="420" y="360" width="150" height="150" as="geometry" />
        </mxCell>
        <mxCell id="761dnnyQ54j-Cl0NHfQN-3064" value="12" style="rounded=0;whiteSpace=wrap;html=1;" parent="gLKEpnA5lNDWp1gUO8rU-499" vertex="1">
          <mxGeometry x="740" y="360" width="120" height="120" as="geometry" />
        </mxCell>
        <mxCell id="761dnnyQ54j-Cl0NHfQN-3065" value="20" style="rounded=0;whiteSpace=wrap;html=1;" parent="gLKEpnA5lNDWp1gUO8rU-499" vertex="1">
          <mxGeometry x="860" y="280" width="200" height="200" as="geometry" />
        </mxCell>
        <mxCell id="761dnnyQ54j-Cl0NHfQN-3066" value="42" style="rounded=0;whiteSpace=wrap;html=1;" parent="gLKEpnA5lNDWp1gUO8rU-499" vertex="1">
          <mxGeometry width="420" height="420" as="geometry" />
        </mxCell>
        <mxCell id="761dnnyQ54j-Cl0NHfQN-3067" value="36" style="rounded=0;whiteSpace=wrap;html=1;" parent="gLKEpnA5lNDWp1gUO8rU-499" vertex="1">
          <mxGeometry x="420" width="360" height="360" as="geometry" />
        </mxCell>
        <mxCell id="761dnnyQ54j-Cl0NHfQN-3068" value="8" style="rounded=0;whiteSpace=wrap;html=1;" parent="gLKEpnA5lNDWp1gUO8rU-499" vertex="1">
          <mxGeometry x="780" y="280" width="80" height="80" as="geometry" />
        </mxCell>
        <mxCell id="761dnnyQ54j-Cl0NHfQN-3069" value="28" style="rounded=0;whiteSpace=wrap;html=1;" parent="gLKEpnA5lNDWp1gUO8rU-499" vertex="1">
          <mxGeometry x="780" width="280" height="280" as="geometry" />
        </mxCell>
        <mxCell id="gLKEpnA5lNDWp1gUO8rU-500" value="" style="group;flipV=1;" vertex="1" connectable="0" parent="1">
          <mxGeometry x="1140" y="4730" width="1060" height="710" as="geometry" />
        </mxCell>
        <mxCell id="761dnnyQ54j-Cl0NHfQN-3116" value="34" style="rounded=0;whiteSpace=wrap;html=1;" parent="gLKEpnA5lNDWp1gUO8rU-500" vertex="1">
          <mxGeometry y="370" width="340" height="340" as="geometry" />
        </mxCell>
        <mxCell id="761dnnyQ54j-Cl0NHfQN-3117" value="31" style="rounded=0;whiteSpace=wrap;html=1;" parent="gLKEpnA5lNDWp1gUO8rU-500" vertex="1">
          <mxGeometry x="340" y="400" width="310" height="310" as="geometry" />
        </mxCell>
        <mxCell id="761dnnyQ54j-Cl0NHfQN-3118" value="18" style="rounded=0;whiteSpace=wrap;html=1;" parent="gLKEpnA5lNDWp1gUO8rU-500" vertex="1">
          <mxGeometry x="650" y="530" width="180" height="180" as="geometry" />
        </mxCell>
        <mxCell id="761dnnyQ54j-Cl0NHfQN-3119" value="23" style="rounded=0;whiteSpace=wrap;html=1;" parent="gLKEpnA5lNDWp1gUO8rU-500" vertex="1">
          <mxGeometry x="830" y="480" width="230" height="230" as="geometry" />
        </mxCell>
        <mxCell id="761dnnyQ54j-Cl0NHfQN-3120" value="13" style="rounded=0;whiteSpace=wrap;html=1;" parent="gLKEpnA5lNDWp1gUO8rU-500" vertex="1">
          <mxGeometry x="650" y="400" width="130" height="130" as="geometry" />
        </mxCell>
        <mxCell id="761dnnyQ54j-Cl0NHfQN-3121" value="5" style="rounded=0;whiteSpace=wrap;html=1;" parent="gLKEpnA5lNDWp1gUO8rU-500" vertex="1">
          <mxGeometry x="780" y="480" width="50" height="50" as="geometry" />
        </mxCell>
        <mxCell id="761dnnyQ54j-Cl0NHfQN-3122" value="9" style="rounded=0;whiteSpace=wrap;html=1;" parent="gLKEpnA5lNDWp1gUO8rU-500" vertex="1">
          <mxGeometry x="780" y="390" width="90" height="90" as="geometry" />
        </mxCell>
        <mxCell id="761dnnyQ54j-Cl0NHfQN-3123" value="19" style="rounded=0;whiteSpace=wrap;html=1;" parent="gLKEpnA5lNDWp1gUO8rU-500" vertex="1">
          <mxGeometry x="870" y="290" width="190" height="190" as="geometry" />
        </mxCell>
        <mxCell id="761dnnyQ54j-Cl0NHfQN-3124" value="3" style="rounded=0;whiteSpace=wrap;html=1;" parent="gLKEpnA5lNDWp1gUO8rU-500" vertex="1">
          <mxGeometry x="340" y="370" width="30" height="30" as="geometry" />
        </mxCell>
        <mxCell id="761dnnyQ54j-Cl0NHfQN-3125" value="40" style="rounded=0;whiteSpace=wrap;html=1;" parent="gLKEpnA5lNDWp1gUO8rU-500" vertex="1">
          <mxGeometry x="370" width="400" height="400" as="geometry" />
        </mxCell>
        <mxCell id="761dnnyQ54j-Cl0NHfQN-3126" value="1" style="rounded=0;whiteSpace=wrap;html=1;" parent="gLKEpnA5lNDWp1gUO8rU-500" vertex="1">
          <mxGeometry x="770" y="390" width="10" height="10" as="geometry" />
        </mxCell>
        <mxCell id="761dnnyQ54j-Cl0NHfQN-3127" value="10" style="rounded=0;whiteSpace=wrap;html=1;" parent="gLKEpnA5lNDWp1gUO8rU-500" vertex="1">
          <mxGeometry x="770" y="290" width="100" height="100" as="geometry" />
        </mxCell>
        <mxCell id="761dnnyQ54j-Cl0NHfQN-3128" value="29" style="rounded=0;whiteSpace=wrap;html=1;" parent="gLKEpnA5lNDWp1gUO8rU-500" vertex="1">
          <mxGeometry x="770" width="290" height="290" as="geometry" />
        </mxCell>
        <mxCell id="761dnnyQ54j-Cl0NHfQN-3129" value="37" style="rounded=0;whiteSpace=wrap;html=1;" parent="gLKEpnA5lNDWp1gUO8rU-500" vertex="1">
          <mxGeometry width="370" height="370" as="geometry" />
        </mxCell>
        <mxCell id="gLKEpnA5lNDWp1gUO8rU-501" value="" style="group;flipV=1;" vertex="1" connectable="0" parent="1">
          <mxGeometry x="1145" y="5660" width="1060" height="820" as="geometry" />
        </mxCell>
        <mxCell id="761dnnyQ54j-Cl0NHfQN-7250" value="25" style="rounded=0;whiteSpace=wrap;html=1;" parent="gLKEpnA5lNDWp1gUO8rU-501" vertex="1">
          <mxGeometry y="570" width="250" height="250" as="geometry" />
        </mxCell>
        <mxCell id="761dnnyQ54j-Cl0NHfQN-7251" value="12" style="rounded=0;whiteSpace=wrap;html=1;" parent="gLKEpnA5lNDWp1gUO8rU-501" vertex="1">
          <mxGeometry x="250" y="700" width="120" height="120" as="geometry" />
        </mxCell>
        <mxCell id="761dnnyQ54j-Cl0NHfQN-7252" value="9" style="rounded=0;whiteSpace=wrap;html=1;" parent="gLKEpnA5lNDWp1gUO8rU-501" vertex="1">
          <mxGeometry x="370" y="730" width="90" height="90" as="geometry" />
        </mxCell>
        <mxCell id="761dnnyQ54j-Cl0NHfQN-7253" value="10" style="rounded=0;whiteSpace=wrap;html=1;" parent="gLKEpnA5lNDWp1gUO8rU-501" vertex="1">
          <mxGeometry x="460" y="720" width="100" height="100" as="geometry" />
        </mxCell>
        <mxCell id="761dnnyQ54j-Cl0NHfQN-7254" value="3" style="rounded=0;whiteSpace=wrap;html=1;" parent="gLKEpnA5lNDWp1gUO8rU-501" vertex="1">
          <mxGeometry x="370" y="700" width="30" height="30" as="geometry" />
        </mxCell>
        <mxCell id="761dnnyQ54j-Cl0NHfQN-7255" value="5" style="rounded=0;whiteSpace=wrap;html=1;" parent="gLKEpnA5lNDWp1gUO8rU-501" vertex="1">
          <mxGeometry x="400" y="680" width="50" height="50" as="geometry" />
        </mxCell>
        <mxCell id="761dnnyQ54j-Cl0NHfQN-7256" value="1" style="rounded=0;whiteSpace=wrap;html=1;" parent="gLKEpnA5lNDWp1gUO8rU-501" vertex="1">
          <mxGeometry x="450" y="720" width="10" height="10" as="geometry" />
        </mxCell>
        <mxCell id="761dnnyQ54j-Cl0NHfQN-7257" value="13" style="rounded=0;whiteSpace=wrap;html=1;" parent="gLKEpnA5lNDWp1gUO8rU-501" vertex="1">
          <mxGeometry x="250" y="570" width="130" height="130" as="geometry" />
        </mxCell>
        <mxCell id="761dnnyQ54j-Cl0NHfQN-7258" value="2" style="rounded=0;whiteSpace=wrap;html=1;" parent="gLKEpnA5lNDWp1gUO8rU-501" vertex="1">
          <mxGeometry x="380" y="680" width="20" height="20" as="geometry" />
        </mxCell>
        <mxCell id="761dnnyQ54j-Cl0NHfQN-7259" value="17" style="rounded=0;whiteSpace=wrap;html=1;" parent="gLKEpnA5lNDWp1gUO8rU-501" vertex="1">
          <mxGeometry x="560" y="650" width="170" height="170" as="geometry" />
        </mxCell>
        <mxCell id="761dnnyQ54j-Cl0NHfQN-7260" value="4" style="rounded=0;whiteSpace=wrap;html=1;" parent="gLKEpnA5lNDWp1gUO8rU-501" vertex="1">
          <mxGeometry x="450" y="680" width="40" height="40" as="geometry" />
        </mxCell>
        <mxCell id="761dnnyQ54j-Cl0NHfQN-7261" value="7" style="rounded=0;whiteSpace=wrap;html=1;" parent="gLKEpnA5lNDWp1gUO8rU-501" vertex="1">
          <mxGeometry x="490" y="650" width="70" height="70" as="geometry" />
        </mxCell>
        <mxCell id="761dnnyQ54j-Cl0NHfQN-7262" value="11" style="rounded=0;whiteSpace=wrap;html=1;" parent="gLKEpnA5lNDWp1gUO8rU-501" vertex="1">
          <mxGeometry x="380" y="570" width="110" height="110" as="geometry" />
        </mxCell>
        <mxCell id="761dnnyQ54j-Cl0NHfQN-7263" value="33" style="rounded=0;whiteSpace=wrap;html=1;" parent="gLKEpnA5lNDWp1gUO8rU-501" vertex="1">
          <mxGeometry x="730" y="490" width="330" height="330" as="geometry" />
        </mxCell>
        <mxCell id="761dnnyQ54j-Cl0NHfQN-7264" value="8" style="rounded=0;whiteSpace=wrap;html=1;" parent="gLKEpnA5lNDWp1gUO8rU-501" vertex="1">
          <mxGeometry x="490" y="570" width="80" height="80" as="geometry" />
        </mxCell>
        <mxCell id="761dnnyQ54j-Cl0NHfQN-7265" value="16" style="rounded=0;whiteSpace=wrap;html=1;" parent="gLKEpnA5lNDWp1gUO8rU-501" vertex="1">
          <mxGeometry x="570" y="490" width="160" height="160" as="geometry" />
        </mxCell>
        <mxCell id="761dnnyQ54j-Cl0NHfQN-7266" value="57" style="rounded=0;whiteSpace=wrap;html=1;" parent="gLKEpnA5lNDWp1gUO8rU-501" vertex="1">
          <mxGeometry width="570" height="570" as="geometry" />
        </mxCell>
        <mxCell id="761dnnyQ54j-Cl0NHfQN-7267" value="49" style="rounded=0;whiteSpace=wrap;html=1;" parent="gLKEpnA5lNDWp1gUO8rU-501" vertex="1">
          <mxGeometry x="570" width="490" height="490" as="geometry" />
        </mxCell>
      </root>
    </mxGraphModel>
  </diagram>
</mxfile>
